<svg class="animated" id="freepik_stories-analysis" xmlns="http://www.w3.org/2000/svg" viewBox="0 0 500 500" version="1.1" xmlns:xlink="http://www.w3.org/1999/xlink" xmlns:svgjs="http://svgjs.com/svgjs"><style>svg#freepik_stories-analysis:not(.animated) .animable {opacity: 0;}svg#freepik_stories-analysis.animated #freepik--data-sheet--inject-248 {animation: 1s 1 forwards cubic-bezier(.36,-0.01,.5,1.38) fadeIn,1.5s Infinite  linear floating;animation-delay: 0s,1s;}svg#freepik_stories-analysis.animated #freepik--Character--inject-248 {animation: 1s 1 forwards cubic-bezier(.36,-0.01,.5,1.38) slideDown,1.5s Infinite  linear floating;animation-delay: 0s,1s;}            @keyframes fadeIn {                0% {                    opacity: 0;                }                100% {                    opacity: 1;                }            }                    @keyframes floating {                0% {                    opacity: 1;                    transform: translateY(0px);                }                50% {                    transform: translateY(-10px);                }                100% {                    opacity: 1;                    transform: translateY(0px);                }            }                    @keyframes slideDown {                0% {                    opacity: 0;                    transform: translateY(-30px);                }                100% {                    opacity: 1;                    transform: translateY(0);                }            }        </style><g id="freepik--background-complete--inject-248" style="transform-origin: 250px 226.869995px;" class="animable"><rect y="382.4" width="500" height="0.25" style="fill: rgb(235, 235, 235); transform-origin: 250px 382.525px;" id="eloboi817p25" class="animable"></rect><rect x="332.11" y="389.21" width="97.6" height="0.25" style="fill: rgb(235, 235, 235); transform-origin: 380.91px 389.335px;" id="el5c8n02f4oru" class="animable"></rect><rect x="289" y="394.99" width="46.67" height="0.25" style="fill: rgb(235, 235, 235); transform-origin: 312.335px 395.115px;" id="elk518nlyffra" class="animable"></rect><rect x="430.71" y="398.49" width="19.19" height="0.25" style="fill: rgb(235, 235, 235); transform-origin: 440.305px 398.615px;" id="eleq76sicakcv" class="animable"></rect><rect x="126.47" y="395.11" width="92.53" height="0.25" style="fill: rgb(235, 235, 235); transform-origin: 172.735px 395.235px;" id="eln7y6x1lxdm" class="animable"></rect><rect x="97.67" y="395.11" width="19.9" height="0.25" style="fill: rgb(235, 235, 235); transform-origin: 107.62px 395.235px;" id="el75o4xlxfjej" class="animable"></rect><rect x="57.79" y="390.89" width="32.86" height="0.25" style="fill: rgb(235, 235, 235); transform-origin: 74.22px 391.015px;" id="elirq2r0f2b5j" class="animable"></rect><path d="M237,337.8H43.91a5.71,5.71,0,0,1-5.7-5.71V60.66A5.71,5.71,0,0,1,43.91,55H237a5.71,5.71,0,0,1,5.71,5.71V332.09A5.71,5.71,0,0,1,237,337.8ZM43.91,55.2a5.46,5.46,0,0,0-5.45,5.46V332.09a5.46,5.46,0,0,0,5.45,5.46H237a5.47,5.47,0,0,0,5.46-5.46V60.66A5.47,5.47,0,0,0,237,55.2Z" style="fill: rgb(235, 235, 235); transform-origin: 140.459999px 196.400009px;" id="elv4x68fn54b" class="animable"></path><path d="M453.31,337.8H260.21a5.72,5.72,0,0,1-5.71-5.71V60.66A5.72,5.72,0,0,1,260.21,55h193.1A5.71,5.71,0,0,1,459,60.66V332.09A5.71,5.71,0,0,1,453.31,337.8ZM260.21,55.2a5.47,5.47,0,0,0-5.46,5.46V332.09a5.47,5.47,0,0,0,5.46,5.46h193.1a5.47,5.47,0,0,0,5.46-5.46V60.66a5.47,5.47,0,0,0-5.46-5.46Z" style="fill: rgb(235, 235, 235); transform-origin: 356.75px 196.399994px;" id="el7w0b4i7iz8g" class="animable"></path><g id="el1jnn2snhlkh"><rect x="53.54" y="250" width="118.38" height="7.67" style="fill: rgb(235, 235, 235); transform-origin: 112.73px 253.835px; transform: rotate(180deg);" class="animable"></rect></g><g id="elimwevq6ys4p"><rect x="55.87" y="257.67" width="106.62" height="124.73" style="fill: rgb(235, 235, 235); transform-origin: 109.18px 320.035px; transform: rotate(180deg);" class="animable"></rect></g><rect x="162.5" y="257.67" width="2.64" height="124.73" style="fill: rgb(240, 240, 240); transform-origin: 163.82px 320.035px;" id="elhkcb6hxgl1d" class="animable"></rect><polygon points="162.5 257.67 55.87 257.67 55.87 263 162.5 260.33 162.5 257.67" style="fill: rgb(230, 230, 230); transform-origin: 109.185001px 260.335007px;" id="el04egbrtlandd" class="animable"></polygon><g id="el6f98rocq614"><rect x="261.21" y="257.67" width="106.62" height="124.73" style="fill: rgb(235, 235, 235); transform-origin: 314.52px 320.035px; transform: rotate(180deg);" class="animable"></rect></g><rect x="367.83" y="257.67" width="2.64" height="124.73" style="fill: rgb(240, 240, 240); transform-origin: 369.15px 320.035px;" id="elv187e87x1cq" class="animable"></rect><polygon points="367.83 257.67 261.21 257.67 261.21 263 367.83 260.33 367.83 257.67" style="fill: rgb(230, 230, 230); transform-origin: 314.519989px 260.335007px;" id="el8dsrhstomam" class="animable"></polygon><rect x="171.92" y="250" width="207.11" height="7.67" style="fill: rgb(245, 245, 245); transform-origin: 275.475px 253.835px;" id="elq2sc91l0au" class="animable"></rect><path d="M145.22,231.66H250.34a7.06,7.06,0,0,0,7.13-8.18l-8.12-63.63a9.6,9.6,0,0,0-9.22-8.18H135a7.07,7.07,0,0,0-7.14,8.18L136,223.48A9.61,9.61,0,0,0,145.22,231.66Z" style="fill: rgb(224, 224, 224); transform-origin: 192.665901px 191.665016px;" id="elr3tnxr55b68" class="animable"></path><polygon points="180.71 198.33 204.16 198.33 196.22 250 172.77 250 180.71 198.33" style="fill: rgb(224, 224, 224); transform-origin: 188.465004px 224.165001px;" id="eljwkzeg8eej" class="animable"></polygon><path d="M146.64,231.66H251.75a7.06,7.06,0,0,0,7.14-8.18l-8.12-63.63a9.61,9.61,0,0,0-9.23-8.18H136.42a7.06,7.06,0,0,0-7.13,8.18l8.12,63.63A9.61,9.61,0,0,0,146.64,231.66Z" style="fill: rgb(230, 230, 230); transform-origin: 194.090027px 191.665138px;" id="elgh8adp30ked" class="animable"></path><polygon points="187.79 151.67 203.12 151.67 230.71 214.27 215.37 214.27 187.79 151.67" style="fill: rgb(245, 245, 245); transform-origin: 209.25px 182.970001px;" id="el5s9r6y0cs9d" class="animable"></polygon><polygon points="177.33 151.67 183.47 151.67 211.05 214.27 204.91 214.27 177.33 151.67" style="fill: rgb(245, 245, 245); transform-origin: 194.190002px 182.970001px;" id="elebphdshuykp" class="animable"></polygon><path d="M257.71,214.27l1.18,9.21a7.07,7.07,0,0,1-7.14,8.18H146.64a9.61,9.61,0,0,1-9.23-8.18l-1.17-9.21Z" style="fill: rgb(240, 240, 240); transform-origin: 197.609001px 222.965897px;" id="elwptn0l95rfd" class="animable"></path><path d="M105.14,233.07a27.57,27.57,0,0,1-.65-12.13,37.41,37.41,0,0,1,3.79-11.7c.44-.93,1-1.78,1.53-2.68l.81-1.31c.29-.43.6-.84.91-1.25.63-.81,1.24-1.63,1.88-2.43s1.41-1.49,2.12-2.22l1.08-1.09c.37-.34.77-.66,1.17-1,.78-.65,1.58-1.28,2.38-1.9a45.7,45.7,0,0,1,5.2-3.1c-1.19,1.67-2.55,3.09-3.76,4.63-.59.79-1.18,1.56-1.79,2.31-.29.39-.61.74-.9,1.13l-.82,1.19c-.55.78-1.11,1.56-1.68,2.32s-1,1.62-1.51,2.42c-.25.4-.53.79-.77,1.19l-.68,1.25c-.45.83-1,1.62-1.36,2.48a65.52,65.52,0,0,0-4.32,10.49A67.67,67.67,0,0,0,105.14,233.07Z" style="fill: rgb(230, 230, 230); transform-origin: 114.729561px 212.665016px;" id="el77m1jsj5982" class="animable"></path><path d="M84.11,230.15a69.36,69.36,0,0,0-2.5-11.41,66.34,66.34,0,0,0-4.2-10.54c-.38-.86-.9-1.66-1.33-2.49l-.67-1.26c-.23-.41-.51-.79-.75-1.2-.5-.81-1-1.61-1.49-2.43s-1.11-1.55-1.65-2.35l-.81-1.19c-.28-.4-.6-.76-.89-1.14-.59-.76-1.18-1.54-1.76-2.33-1.19-1.56-2.53-3-3.71-4.68a44.49,44.49,0,0,1,5.17,3.17c.79.62,1.58,1.26,2.36,1.92.39.32.79.64,1.16,1l1.06,1.09q1.07,1.11,2.1,2.25c.63.8,1.23,1.63,1.85,2.45.3.42.61.83.89,1.26l.8,1.32c.5.9,1.07,1.76,1.5,2.7A37.46,37.46,0,0,1,84.89,218,27.54,27.54,0,0,1,84.11,230.15Z" style="fill: rgb(230, 230, 230); transform-origin: 74.793198px 209.639999px;" id="ell9swgz90zim" class="animable"></path><path d="M84.43,232c.11-4.52,0-8.89-.29-13.22A88.91,88.91,0,0,0,82.27,206c-.38-2.11-1.06-4.13-1.6-6.21-.34-1-.71-2-1-3a32,32,0,0,0-1.16-3c-1.51-4.07-3.71-7.81-5.8-11.85a37,37,0,0,1,8.82,10.36l.88,1.48c.29.5.49,1,.74,1.56.49,1,1,2.1,1.4,3.16A52.84,52.84,0,0,1,86.46,205a48.48,48.48,0,0,1,1,13.68A39.73,39.73,0,0,1,84.43,232Z" style="fill: rgb(230, 230, 230); transform-origin: 80.142628px 206.970001px;" id="el6fobaos31fq" class="animable"></path><path d="M103.42,234.66a62,62,0,0,1-5.53-13.09,88.88,88.88,0,0,1-3-13.89c-.35-2.34-.52-4.71-.71-7.08s-.21-4.74-.08-7.12A63.29,63.29,0,0,1,96,179.39c.63,4.74.9,9.36,1.48,14,.2,2.3.53,4.59.76,6.88l.45,3.43c.12,1.15.28,2.29.45,3.43q.93,6.85,2.06,13.7Z" style="fill: rgb(230, 230, 230); transform-origin: 98.718529px 207.025002px;" id="elyoimigxs74" class="animable"></path><path d="M102.48,233.75a61.92,61.92,0,0,1-7-12.38,86.92,86.92,0,0,1-4.59-13.44c-.63-2.29-1.07-4.63-1.52-7s-.75-4.68-.89-7.06a63.13,63.13,0,0,1,.27-14.21c1.16,4.63,2,9.19,3,13.7.47,2.26,1.06,4.5,1.55,6.75l.84,3.36c.25,1.12.54,2.24.84,3.35,1.13,4.47,2.35,8.92,3.61,13.38Z" style="fill: rgb(230, 230, 230); transform-origin: 95.341221px 206.704987px;" id="eliyhd2fdyeha" class="animable"></path><path d="M100.63,232.74a61.64,61.64,0,0,1-8.12-11.66,87,87,0,0,1-5.85-13c-.84-2.22-1.49-4.51-2.16-6.78s-1.19-4.6-1.56-6.95a63,63,0,0,1-1.07-14.18c1.59,4.5,2.82,9,4.33,13.36.68,2.21,1.48,4.38,2.18,6.57l1.15,3.27c.35,1.09.75,2.17,1.16,3.25,1.54,4.35,3.17,8.67,4.86,13Z" style="fill: rgb(230, 230, 230); transform-origin: 91.227516px 206.454994px;" id="el3zb0cfyoypu" class="animable"></path><path d="M105.79,231.54a27.61,27.61,0,0,1-2.89-11.8,37.61,37.61,0,0,1,1.55-12.2c.26-1,.68-1.95,1-2.92l.55-1.44c.21-.47.44-.93.67-1.39.46-.92.91-1.84,1.39-2.74s1.11-1.73,1.67-2.58l.86-1.27c.3-.41.64-.79,1-1.18.66-.78,1.32-1.55,2-2.31a43.11,43.11,0,0,1,4.54-4c-.87,1.86-1.94,3.51-2.84,5.25-.44.88-.88,1.75-1.33,2.6-.22.43-.47.84-.68,1.28l-.58,1.32c-.4.87-.8,1.74-1.22,2.59s-.69,1.78-1,2.66c-.17.44-.38.87-.53,1.31l-.44,1.35c-.29.9-.66,1.78-.88,2.69a66.2,66.2,0,0,0-2.3,11.11A68.23,68.23,0,0,0,105.79,231.54Z" style="fill: rgb(230, 230, 230); transform-origin: 110.501526px 209.625008px;" id="elbbn427shmzq" class="animable"></path><path d="M105.79,233.36a39.34,39.34,0,0,1-5.33-12.49,48.47,48.47,0,0,1-1.36-13.65,50.87,50.87,0,0,1,.76-6.86c.26-1.13.53-2.25.83-3.36.16-.55.26-1.12.46-1.66l.61-1.62A37.05,37.05,0,0,1,108.63,182,110.26,110.26,0,0,0,105,194.66a28.59,28.59,0,0,0-.61,3.17c-.15,1.06-.35,2.11-.51,3.17-.16,2.14-.48,4.25-.49,6.4a91.24,91.24,0,0,0,.38,12.89C104.2,224.61,104.89,228.93,105.79,233.36Z" style="fill: rgb(230, 230, 230); transform-origin: 103.842922px 207.679993px;" id="elfzphe8wb1sc" class="animable"></path><polygon points="98.95 227.64 86.88 207.07 85.39 227.11 98.95 227.64" style="fill: rgb(230, 230, 230); transform-origin: 92.169998px 217.355003px;" id="el4rzj3v7cf33" class="animable"></polygon><polygon points="118.81 222.1 72.44 222.1 78.51 250 112.74 250 118.81 222.1" style="fill: rgb(245, 245, 245); transform-origin: 95.625px 236.050003px;" id="el945q7palqu" class="animable"></polygon><polygon points="89.84 222.1 72.44 222.1 78.51 250 87.65 250 89.84 222.1" style="fill: rgb(235, 235, 235); transform-origin: 81.139999px 236.050003px;" id="ele90xo5wqe7q" class="animable"></polygon><path d="M416.73,285.78H343c-3.94-34.84,3.3-72.29,21.36-107.28a5.66,5.66,0,0,1,5-3.06h62.37A4.88,4.88,0,0,1,436,182.7C419.47,216.47,412.94,252.33,416.73,285.78Z" style="fill: rgb(224, 224, 224); transform-origin: 389.288132px 230.609993px;" id="elckqemfu36e" class="animable"></path><path d="M399.24,276.61H318a9.19,9.19,0,0,0-9.17,9.17h99.6A9.19,9.19,0,0,0,399.24,276.61Z" style="fill: rgb(224, 224, 224); transform-origin: 358.62999px 281.194992px;" id="el3fnp0m8c70m" class="animable"></path><polygon points="363.13 382.4 358.61 382.4 347.44 285.78 351.96 285.78 363.13 382.4" style="fill: rgb(224, 224, 224); transform-origin: 355.285004px 334.089996px;" id="elbddc6zec6wc" class="animable"></polygon><polygon points="427.9 382.4 423.38 382.4 412.21 285.78 416.73 285.78 427.9 382.4" style="fill: rgb(224, 224, 224); transform-origin: 420.054993px 334.089996px;" id="els3kmfdj7kf" class="animable"></polygon><polygon points="369.15 382.4 373.68 382.4 384.85 285.78 380.32 285.78 369.15 382.4" style="fill: rgb(224, 224, 224); transform-origin: 377px 334.089996px;" id="elp0t0gj9uja9" class="animable"></polygon><polygon points="304.39 382.4 308.91 382.4 320.08 285.78 315.56 285.78 304.39 382.4" style="fill: rgb(224, 224, 224); transform-origin: 312.235001px 334.089996px;" id="elvssqr1zgbb" class="animable"></polygon><rect x="84.26" y="68.33" width="340.52" height="62.67" style="fill: rgb(245, 245, 245); transform-origin: 254.52px 99.665px;" id="elb1trcx55aiv" class="animable"></rect><g id="ela4a7rweid6s"><rect x="81.68" y="68.33" width="2.57" height="62.67" style="fill: rgb(235, 235, 235); transform-origin: 82.965px 99.665px; transform: rotate(180deg);" class="animable"></rect></g><path d="M404.56,105.67c-99.78,16.8-199.56-16.8-299.34,0v-12c99.78-16.8,199.56,16.8,299.34,0Z" style="fill: rgb(235, 235, 235); transform-origin: 254.889999px 99.670002px;" id="eltlorzaxtby" class="animable"></path></g><g id="freepik--Shadow--inject-248" style="transform-origin: 250px 416.239983px;" class="animable"><ellipse id="freepik--path--inject-248" cx="250" cy="416.24" rx="193.89" ry="11.32" style="fill: rgb(245, 245, 245); transform-origin: 250px 416.24px;" class="animable"></ellipse></g><g id="freepik--data-sheet--inject-248" style="transform-origin: 274.144058px 233.334999px;" class="animable animator-active"><path d="M378,99.88h29.13c5.8,0,10.51,6.79,7.14,13.58H298.77c4-8-3.15-13.58-7.15-13.58Z" style="fill: rgb(64, 123, 255); transform-origin: 353.509064px 106.669998px;" id="elhtsuul43ahw" class="animable"></path><path d="M286.24,99.88h118.5c-16.23,0-30.7,13.15-32.34,29.37l-21,208.17c-1.64,16.22-16.11,29.37-32.34,29.37H259.33c-16.22,0-28-13.15-26.41-29.37l21-208.17C255.54,113,270,99.88,286.24,99.88Z" style="fill: rgb(64, 123, 255); transform-origin: 318.758118px 233.334984px;" id="elezcna1iu21g" class="animable"></path><g id="eljm4ao7cowp"><path d="M286.24,99.88h118.5c-16.23,0-30.7,13.15-32.34,29.37l-21,208.17c-1.64,16.22-16.11,29.37-32.34,29.37H259.33c-16.22,0-28-13.15-26.41-29.37l21-208.17C255.54,113,270,99.88,286.24,99.88Z" style="fill: rgb(255, 255, 255); opacity: 0.7; transform-origin: 318.758118px 233.334984px;" class="animable"></path></g><path d="M292.67,337.42h0a8.52,8.52,0,0,0-8.63-9.6H165.54a8.52,8.52,0,0,1,8.64,9.6h0c-1.64,16.22,10.19,29.37,26.41,29.37H319.08C302.86,366.79,291,353.64,292.67,337.42Z" style="fill: rgb(64, 123, 255); transform-origin: 242.30999px 347.30394px;" id="ell7x0ne1jan" class="animable"></path><path d="M171.79,327.81H142.66a9.81,9.81,0,0,0-9.77,9.61H274.27a9.81,9.81,0,0,1,9.77-9.61Z" style="fill: rgb(64, 123, 255); transform-origin: 208.464989px 332.61499px;" id="eld5zieunl455" class="animable"></path><g id="elu9524xok5hm"><path d="M171.79,327.81H142.66a9.81,9.81,0,0,0-9.77,9.61H274.27a9.81,9.81,0,0,1,9.77-9.61Z" style="fill: rgb(255, 255, 255); opacity: 0.6; transform-origin: 208.464989px 332.61499px;" class="animable"></path></g><g id="elm7882wubn6k"><g style="opacity: 0.5; transform-origin: 302.220001px 234.350006px;" class="animable"><polygon points="273.07 201.93 264.13 201.93 265.04 193 273.97 193 273.07 201.93" style="fill: rgb(255, 255, 255); transform-origin: 269.050003px 197.464996px;" id="el0a8aynzj7i25" class="animable"></polygon><polygon points="287.82 201.93 278.89 201.93 279.79 193 288.72 193 287.82 201.93" style="fill: rgb(255, 255, 255); transform-origin: 283.805008px 197.464996px;" id="elgq5efzsfn14" class="animable"></polygon><polygon points="302.58 201.93 293.64 201.93 294.54 193 303.48 193 302.58 201.93" style="fill: rgb(255, 255, 255); transform-origin: 298.560013px 197.464996px;" id="eltcd6gye3jp8" class="animable"></polygon><polygon points="317.33 201.93 308.39 201.93 309.3 193 318.23 193 317.33 201.93" style="fill: rgb(255, 255, 255); transform-origin: 313.310013px 197.464996px;" id="elwq4v672y04n" class="animable"></polygon><polygon points="332.08 201.93 323.15 201.93 324.05 193 332.98 193 332.08 201.93" style="fill: rgb(255, 255, 255); transform-origin: 328.065002px 197.464996px;" id="elccdtad71789" class="animable"></polygon><polygon points="346.84 201.93 337.9 201.93 338.8 193 347.74 193 346.84 201.93" style="fill: rgb(255, 255, 255); transform-origin: 342.819992px 197.464996px;" id="el5ykkbid973v" class="animable"></polygon><polygon points="271.58 216.69 262.65 216.69 263.55 207.75 272.48 207.75 271.58 216.69" style="fill: rgb(255, 255, 255); transform-origin: 267.565002px 212.220001px;" id="elh78knw2srw7" class="animable"></polygon><polygon points="286.34 216.69 277.4 216.69 278.3 207.75 287.24 207.75 286.34 216.69" style="fill: rgb(255, 255, 255); transform-origin: 282.319992px 212.220001px;" id="el8pat875i7sd" class="animable"></polygon><polygon points="301.09 216.69 292.15 216.69 293.06 207.75 301.99 207.75 301.09 216.69" style="fill: rgb(255, 255, 255); transform-origin: 297.069992px 212.220001px;" id="eldt13r4r27al" class="animable"></polygon><polygon points="315.84 216.69 306.91 216.69 307.81 207.75 316.74 207.75 315.84 216.69" style="fill: rgb(255, 255, 255); transform-origin: 311.824997px 212.220001px;" id="elh3usp5smzpf" class="animable"></polygon><polygon points="330.6 216.69 321.66 216.69 322.56 207.75 331.5 207.75 330.6 216.69" style="fill: rgb(255, 255, 255); transform-origin: 326.580002px 212.220001px;" id="elzsb72m2gr5" class="animable"></polygon><polygon points="345.35 216.69 336.41 216.69 337.31 207.75 346.25 207.75 345.35 216.69" style="fill: rgb(255, 255, 255); transform-origin: 341.330002px 212.220001px;" id="el39obcwumhxj" class="animable"></polygon><polygon points="270.1 231.44 261.16 231.44 262.06 222.5 271 222.5 270.1 231.44" style="fill: rgb(255, 255, 255); transform-origin: 266.080002px 226.970001px;" id="elsjn2n0gg49" class="animable"></polygon><polygon points="284.85 231.44 275.91 231.44 276.81 222.5 285.75 222.5 284.85 231.44" style="fill: rgb(255, 255, 255); transform-origin: 280.830002px 226.970001px;" id="elor7ns8brcp8" class="animable"></polygon><polygon points="299.6 231.44 290.67 231.44 291.57 222.5 300.5 222.5 299.6 231.44" style="fill: rgb(255, 255, 255); transform-origin: 295.585007px 226.970001px;" id="el8jkn00vz0ut" class="animable"></polygon><polygon points="314.36 231.44 305.42 231.44 306.32 222.5 315.26 222.5 314.36 231.44" style="fill: rgb(255, 255, 255); transform-origin: 310.340012px 226.970001px;" id="elxqsxshllli" class="animable"></polygon><polygon points="329.11 231.44 320.17 231.44 321.07 222.5 330.01 222.5 329.11 231.44" style="fill: rgb(255, 255, 255); transform-origin: 325.090012px 226.970001px;" id="el8dwlcr72xhk" class="animable"></polygon><polygon points="343.86 231.44 334.93 231.44 335.83 222.5 344.76 222.5 343.86 231.44" style="fill: rgb(255, 255, 255); transform-origin: 339.845001px 226.970001px;" id="elolqyxqvyjvc" class="animable"></polygon><polygon points="268.61 246.19 259.67 246.19 260.57 237.26 269.51 237.26 268.61 246.19" style="fill: rgb(255, 255, 255); transform-origin: 264.590012px 241.724998px;" id="elbfipb004zhv" class="animable"></polygon><polygon points="283.36 246.19 274.43 246.19 275.33 237.26 284.26 237.26 283.36 246.19" style="fill: rgb(255, 255, 255); transform-origin: 279.345001px 241.724998px;" id="el1mfgt16obbm" class="animable"></polygon><polygon points="298.11 246.19 289.18 246.19 290.08 237.26 299.01 237.26 298.11 246.19" style="fill: rgb(255, 255, 255); transform-origin: 294.095001px 241.724998px;" id="elum1ivgi1e5r" class="animable"></polygon><polygon points="312.87 246.19 303.93 246.19 304.83 237.26 313.77 237.26 312.87 246.19" style="fill: rgb(255, 255, 255); transform-origin: 308.849991px 241.724998px;" id="elsf48maug45c" class="animable"></polygon><polygon points="327.62 246.19 318.69 246.19 319.59 237.26 328.52 237.26 327.62 246.19" style="fill: rgb(255, 255, 255); transform-origin: 323.604996px 241.724998px;" id="elcybwuk376e5" class="animable"></polygon><polygon points="342.37 246.19 333.44 246.19 334.34 237.26 343.27 237.26 342.37 246.19" style="fill: rgb(255, 255, 255); transform-origin: 338.354996px 241.724998px;" id="elb14lmnze2mb" class="animable"></polygon><polygon points="267.12 260.95 258.19 260.95 259.09 252.01 268.02 252.01 267.12 260.95" style="fill: rgb(255, 255, 255); transform-origin: 263.104996px 256.480003px;" id="elao5apxkauwg" class="animable"></polygon><polygon points="281.87 260.95 272.94 260.95 273.84 252.01 282.77 252.01 281.87 260.95" style="fill: rgb(255, 255, 255); transform-origin: 277.854996px 256.480003px;" id="el61xkpy74htx" class="animable"></polygon><polygon points="296.63 260.95 287.69 260.95 288.59 252.01 297.53 252.01 296.63 260.95" style="fill: rgb(255, 255, 255); transform-origin: 292.610001px 256.480003px;" id="el3a2sknez59o" class="animable"></polygon><polygon points="311.38 260.95 302.44 260.95 303.35 252.01 312.28 252.01 311.38 260.95" style="fill: rgb(255, 255, 255); transform-origin: 307.360001px 256.480003px;" id="elkwdl3o55nt" class="animable"></polygon><polygon points="326.13 260.95 317.2 260.95 318.1 252.01 327.03 252.01 326.13 260.95" style="fill: rgb(255, 255, 255); transform-origin: 322.115005px 256.480003px;" id="elmj8kj9w2xk" class="animable"></polygon><polygon points="340.89 260.95 331.95 260.95 332.85 252.01 341.79 252.01 340.89 260.95" style="fill: rgb(255, 255, 255); transform-origin: 336.87001px 256.480003px;" id="elw5bafaf374a" class="animable"></polygon><polygon points="265.63 275.7 256.7 275.7 257.6 266.76 266.53 266.76 265.63 275.7" style="fill: rgb(255, 255, 255); transform-origin: 261.615005px 271.230011px;" id="eldxv9qe6jnb7" class="animable"></polygon><polygon points="280.39 275.7 271.45 275.7 272.35 266.76 281.29 266.76 280.39 275.7" style="fill: rgb(255, 255, 255); transform-origin: 276.37001px 271.230011px;" id="elq9hmuhplmoq" class="animable"></polygon><polygon points="295.14 275.7 286.2 275.7 287.11 266.76 296.04 266.76 295.14 275.7" style="fill: rgb(255, 255, 255); transform-origin: 291.12001px 271.230011px;" id="eljfn2am5hb7" class="animable"></polygon><polygon points="309.89 275.7 300.96 275.7 301.86 266.76 310.79 266.76 309.89 275.7" style="fill: rgb(255, 255, 255); transform-origin: 305.875px 271.230011px;" id="elraq7az7ssah" class="animable"></polygon><polygon points="324.65 275.7 315.71 275.7 316.61 266.76 325.55 266.76 324.65 275.7" style="fill: rgb(255, 255, 255); transform-origin: 320.62999px 271.230011px;" id="elx51jqhik9j" class="animable"></polygon><polygon points="339.4 275.7 330.46 275.7 331.37 266.76 340.3 266.76 339.4 275.7" style="fill: rgb(255, 255, 255); transform-origin: 335.37999px 271.230011px;" id="elonw8p8l2jrf" class="animable"></polygon></g></g><path d="M270.26,266.76a4.22,4.22,0,0,1-4.1,3.73,3.31,3.31,0,0,1-3.35-3.73,4.2,4.2,0,0,1,4.1-3.72A3.3,3.3,0,0,1,270.26,266.76Z" style="fill: rgb(64, 123, 255); transform-origin: 266.535049px 266.764893px;" id="eluwkilbe7e6s" class="animable"></path><path d="M289.48,222.5a4.23,4.23,0,0,1-4.11,3.73A3.31,3.31,0,0,1,282,222.5a4.23,4.23,0,0,1,4.11-3.72A3.32,3.32,0,0,1,289.48,222.5Z" style="fill: rgb(64, 123, 255); transform-origin: 285.738693px 222.505157px;" id="elkbpt7kjzgk" class="animable"></path><path d="M317.5,237.26a4.23,4.23,0,0,1-4.11,3.73,3.31,3.31,0,0,1-3.35-3.73,4.23,4.23,0,0,1,4.1-3.73A3.32,3.32,0,0,1,317.5,237.26Z" style="fill: rgb(64, 123, 255); transform-origin: 313.769348px 237.260002px;" id="eliup6i3wvcs" class="animable"></path><path d="M350,207.75a4.23,4.23,0,0,1-4.11,3.73,3.31,3.31,0,0,1-3.35-3.73,4.23,4.23,0,0,1,4.11-3.73A3.31,3.31,0,0,1,350,207.75Z" style="fill: rgb(64, 123, 255); transform-origin: 346.27002px 207.750023px;" id="els55gq1p364" class="animable"></path><path d="M266.53,267.86a1.09,1.09,0,0,1-1-1.53l19.22-44.26a1.08,1.08,0,0,1,.64-.6,1.1,1.1,0,0,1,.87.07l27.34,14.39,31.91-29a1.1,1.1,0,0,1,1.55.08,1.09,1.09,0,0,1-.08,1.54L314.5,238.07a1.07,1.07,0,0,1-1.24.15l-27-14.2L267.54,267.2A1.1,1.1,0,0,1,266.53,267.86Z" style="fill: rgb(64, 123, 255); transform-origin: 306.388901px 237.254288px;" id="elyr0h95so6pl" class="animable"></path><g id="elqwktsvjr13"><polygon points="262.44 307.34 253.51 307.34 253.96 302.87 262.89 302.87 262.44 307.34" style="fill: rgb(64, 123, 255); opacity: 0.5; transform-origin: 258.200005px 305.104996px;" class="animable"></polygon></g><g id="elxcjhgce4r5h"><polygon points="277.2 307.34 268.26 307.34 269.81 291.95 278.75 291.95 277.2 307.34" style="fill: rgb(64, 123, 255); opacity: 0.6; transform-origin: 273.505005px 299.645004px;" class="animable"></polygon></g><g id="el81gdekhk4xe"><polygon points="291.95 307.34 283.01 307.34 283.92 298.4 292.85 298.4 291.95 307.34" style="fill: rgb(64, 123, 255); opacity: 0.7; transform-origin: 287.930008px 302.869995px;" class="animable"></polygon></g><g id="elbh6btqzlxpv"><polygon points="306.7 307.34 297.77 307.34 298.95 295.59 307.89 295.59 306.7 307.34" style="fill: rgb(64, 123, 255); opacity: 0.8; transform-origin: 302.830002px 301.464996px;" class="animable"></polygon></g><g id="elsxqzq80oyr"><polygon points="321.46 307.34 312.52 307.34 313.24 300.21 322.18 300.21 321.46 307.34" style="fill: rgb(64, 123, 255); opacity: 0.9; transform-origin: 317.349991px 303.774994px;" class="animable"></polygon></g><polygon points="336.21 307.34 327.27 307.34 327.73 302.87 336.66 302.87 336.21 307.34" style="fill: rgb(64, 123, 255); transform-origin: 331.964996px 305.104996px;" id="ellsobcm6q0j" class="animable"></polygon><g id="elomfs5x7qnl"><path d="M346.74,177.41H269.18a2.28,2.28,0,0,1-2.31-2.57l3.53-35.1a2.91,2.91,0,0,1,2.83-2.57H350.8a2.29,2.29,0,0,1,2.31,2.57l-3.54,35.1A2.91,2.91,0,0,1,346.74,177.41Z" style="fill: rgb(255, 255, 255); opacity: 0.5; transform-origin: 309.989304px 157.290115px;" class="animable"></path></g><path d="M293.55,157.29l6.42-13.8a13,13,0,0,1,8.28,13.8,16.78,16.78,0,0,1-13.6,14.47Z" style="fill: rgb(64, 123, 255); transform-origin: 300.952713px 157.625px;" id="elmrvowg9iwu" class="animable"></path><path d="M293.55,157.29l1.1,14.47a15,15,0,0,1-2.58.22,13.1,13.1,0,0,1-13.21-14.69A16.72,16.72,0,0,1,295,142.6a13.85,13.85,0,0,1,4.93.89Z" style="fill: rgb(255, 255, 255); transform-origin: 289.346451px 157.290802px;" id="elt0j61a13j6s" class="animable"></path><polygon points="328.47 153.72 334.04 153.72 332.2 171.96 326.63 171.96 328.47 153.72" style="fill: rgb(255, 255, 255); transform-origin: 330.335007px 162.840004px;" id="elxj076my4a9" class="animable"></polygon><polygon points="336.96 163.42 342.53 163.42 341.67 171.96 336.1 171.96 336.96 163.42" style="fill: rgb(255, 255, 255); transform-origin: 339.315002px 167.690002px;" id="ell1bmusy42e" class="animable"></polygon><polygon points="336.96 163.42 342.53 163.42 343.06 158.21 337.49 158.21 336.96 163.42" style="fill: rgb(64, 123, 255); transform-origin: 340.009995px 160.815002px;" id="el4rtbvua8pme" class="animable"></polygon><polygon points="328.47 153.72 334.04 153.72 335.16 142.6 329.59 142.6 328.47 153.72" style="fill: rgb(64, 123, 255); transform-origin: 331.815002px 148.160004px;" id="elsbho025ooek" class="animable"></polygon><polygon points="318.67 157.04 324.24 157.04 322.74 171.96 317.17 171.96 318.67 157.04" style="fill: rgb(255, 255, 255); transform-origin: 320.705002px 164.5px;" id="eld44r077ktz5" class="animable"></polygon><polygon points="318.67 157.04 324.24 157.04 324.93 150.2 319.36 150.2 318.67 157.04" style="fill: rgb(64, 123, 255); transform-origin: 321.800003px 153.619995px;" id="ellz9l45k6u2" class="animable"></polygon></g><g id="freepik--Character--inject-248" style="transform-origin: 179.925468px 255.501907px;" class="animable"><path d="M134.3,159.55c-.44.73-1,1.65-1.43,2.49s-1,1.75-1.41,2.63c-.9,1.78-1.81,3.55-2.64,5.37a93.1,93.1,0,0,0-4.32,11l-.42,1.4-.2.71-.06.17s0,0,0,0,0,0,0,0a2.63,2.63,0,0,0,.15,1.32,22.87,22.87,0,0,0,2.28,4.76,109.33,109.33,0,0,0,6.92,9.85L130,202.6a56.63,56.63,0,0,1-9.6-9,25.73,25.73,0,0,1-3.94-6.11,10.92,10.92,0,0,1-1-4.79,7.53,7.53,0,0,1,.09-.8l.07-.42,0-.2.17-.82.35-1.64a80.23,80.23,0,0,1,4.15-12.55c.86-2,1.77-4,2.79-5.94.5-1,1-1.94,1.56-2.9s1.09-1.87,1.76-2.91Z" style="fill: rgb(255, 139, 123); transform-origin: 124.878895px 178.560005px;" id="el2uizmye30b" class="animable"></path><path d="M130.88,197.45l7.52.31-3,6.45s-5.35-.3-7.36-3.54Z" style="fill: rgb(255, 139, 123); transform-origin: 133.220009px 200.829994px;" id="elcv5liktv0u" class="animable"></path><polygon points="140.26 200.66 138.4 206.44 135.37 204.22 138.4 197.76 140.26 200.66" style="fill: rgb(255, 139, 123); transform-origin: 137.814995px 202.099998px;" id="el121ylhlkgvh" class="animable"></polygon><path d="M146.5,407.46a11.32,11.32,0,0,1-2.42-.33.23.23,0,0,1-.17-.17.22.22,0,0,1,.09-.22c.31-.21,3.07-2,4.14-1.52a.76.76,0,0,1,.44.61,1.21,1.21,0,0,1-.34,1.15A2.59,2.59,0,0,1,146.5,407.46Zm-1.81-.64c1.6.32,2.79.26,3.25-.16a.78.78,0,0,0,.21-.77.34.34,0,0,0-.18-.28C147.4,405.36,145.81,406.13,144.69,406.82Z" style="fill: rgb(64, 123, 255); transform-origin: 146.259262px 406.304153px;" id="elhkyf6x3ihvo" class="animable"></path><path d="M144.13,407.13a.2.2,0,0,1-.11,0,.23.23,0,0,1-.11-.19c0-.11,0-2.75,1-3.63a1.13,1.13,0,0,1,.91-.29.78.78,0,0,1,.74.61c.22,1-1.42,3-2.28,3.5A.22.22,0,0,1,144.13,407.13Zm1.51-3.7a.72.72,0,0,0-.48.18c-.59.53-.77,2-.81,2.89.86-.7,1.88-2.18,1.74-2.81,0-.1-.08-.23-.36-.26Z" style="fill: rgb(64, 123, 255); transform-origin: 145.245064px 405.076981px;" id="el7zw9wbwggwj" class="animable"></path><path d="M214.17,403.38a.24.24,0,0,1-.2-.09.21.21,0,0,1,0-.25c.28-.36,2.74-3.45,4.07-3.54h.09a.71.71,0,0,1,.59.35,1.12,1.12,0,0,1,.09,1.09c-.52,1.22-3.11,2-4.61,2.43Zm3.89-3.45c-.73.05-2.27,1.6-3.32,2.86,2-.59,3.38-1.32,3.68-2a.75.75,0,0,0-.07-.72.28.28,0,0,0-.24-.14Z" style="fill: rgb(64, 123, 255); transform-origin: 216.419815px 401.440155px;" id="elln319rfgmio" class="animable"></path><path d="M214.17,403.38h0a.21.21,0,0,1-.17-.13c0-.09-.91-2.34-.27-3.68a1.63,1.63,0,0,1,.95-.85c.58-.21.88,0,1,.18.61.83-.53,3.5-1.33,4.41A.22.22,0,0,1,214.17,403.38ZM215,399a1.16,1.16,0,0,0-.26.06,1.21,1.21,0,0,0-.7.63,4.75,4.75,0,0,0,.15,3c.74-1.07,1.42-3.07,1.06-3.57A.26.26,0,0,0,215,399Z" style="fill: rgb(64, 123, 255); transform-origin: 214.677307px 401.0065px;" id="el4nkctm4vqi" class="animable"></path><path d="M146.18,122.73c1,5.44,3.36,17.33-.46,20.87,0,0,1.45,5.54,11.55,5.74,11.11.21,5.34-5.4,5.34-5.4-6.05-1.57-5.87-6.05-4.79-10.25Z" style="fill: rgb(255, 139, 123); transform-origin: 154.913879px 136.037899px;" id="elqkuembpiy7c" class="animable"></path><path d="M143,146.36l-1.94-9.59a35.69,35.69,0,0,0,8.56,1.4c3.89,0,12.32-.31,16.51-1.76,1.16,1.64,7.24,6,7.24,6L170.65,147Z" style="fill: rgb(64, 123, 255); transform-origin: 157.214996px 141.705002px;" id="elo9m9dbfzes8" class="animable"></path><g id="eli8onkatx5rr"><path d="M143,146.36l-1.94-9.59a35.69,35.69,0,0,0,8.56,1.4c3.89,0,12.32-.31,16.51-1.76,1.16,1.64,7.24,6,7.24,6L170.65,147Z" style="fill: rgb(255, 255, 255); opacity: 0.8; transform-origin: 157.214996px 141.705002px;" class="animable"></path></g><path d="M167.86,112.28a.49.49,0,0,1-.19-.07.44.44,0,0,1-.13-.6,4.25,4.25,0,0,1,3.38-2,.44.44,0,0,1,.44.43.44.44,0,0,1-.43.44h0a3.37,3.37,0,0,0-2.66,1.62A.42.42,0,0,1,167.86,112.28Z" style="fill: rgb(38, 50, 56); transform-origin: 169.416504px 110.947315px;" id="el8glao75a45l" class="animable"></path><path d="M170.65,117.39a19.86,19.86,0,0,0,2.71,4.71,3.16,3.16,0,0,1-2.62.5Z" style="fill: rgb(255, 86, 82); transform-origin: 172.00499px 120.043011px;" id="elvvbkzw91b6" class="animable"></path><path d="M170,116.12c0,.74.41,1.34.89,1.34s.87-.6.85-1.34-.41-1.34-.89-1.34S170,115.38,170,116.12Z" style="fill: rgb(38, 50, 56); transform-origin: 170.870369px 116.120003px;" id="elu2l8lv36l89" class="animable"></path><path d="M170.6,114.82l1.77-.51S171.48,115.7,170.6,114.82Z" style="fill: rgb(38, 50, 56); transform-origin: 171.485008px 114.710968px;" id="elcupcjcda6ev" class="animable"></path><polygon points="205.43 409.15 214.3 406.1 208.04 386.37 199.18 389.43 205.43 409.15" style="fill: rgb(255, 139, 123); transform-origin: 206.739998px 397.759995px;" id="elaqyejemi4mf" class="animable"></polygon><polygon points="133.48 406.92 142.63 406.92 141.62 385.72 132.47 385.72 133.48 406.92" style="fill: rgb(255, 139, 123); transform-origin: 137.550003px 396.320007px;" id="elv5g3b1st6zh" class="animable"></polygon><path d="M143.35,405.86H133.06a.72.72,0,0,0-.72.62l-1.06,8.14a1.5,1.5,0,0,0,1.49,1.63c3.59-.06,5.31-.27,9.83-.27,2.79,0,6.85.28,10.7.28s4-3.79,2.39-4.14c-7.2-1.54-8.36-3.67-10.81-5.7A2.45,2.45,0,0,0,143.35,405.86Z" style="fill: rgb(38, 50, 56); transform-origin: 143.965439px 411.059998px;" id="elffud7k5yumb" class="animable"></path><path d="M213.14,402.5,203.63,407a.71.71,0,0,0-.41.87l2.45,7.64a1.5,1.5,0,0,0,2.07.78c3.29-1.61,4.8-2.55,9-4.51,2.57-1.21,8-3.46,11.58-5.13s2.09-5.09.46-4.7c-7.3,1.77-10.84,1.13-14,.4A2.56,2.56,0,0,0,213.14,402.5Z" style="fill: rgb(38, 50, 56); transform-origin: 216.854836px 409.185516px;" id="elc7h6qrjsyj8" class="animable"></path><g id="eloi2s8vtnv7g"><polygon points="208.04 386.38 211.4 396.94 202.4 399.6 199.17 389.43 208.04 386.38" style="opacity: 0.2; transform-origin: 205.284996px 392.990005px;" class="animable"></polygon></g><g id="el1y83wico1ki"><polygon points="132.47 385.73 141.62 385.73 142.14 396.65 132.99 396.65 132.47 385.73" style="opacity: 0.2; transform-origin: 137.305px 391.190002px;" class="animable"></polygon></g><path d="M129.91,145.37c-3.81.76-8,14.35-8,14.35l10.7,11.63s9-12.66,7.21-17.42C138,149,134.41,144.48,129.91,145.37Z" style="fill: rgb(64, 123, 255); transform-origin: 130.982773px 158.303619px;" id="eltfd57x7gcm" class="animable"></path><g id="el4ockf2nyf7f"><path d="M129.91,145.37c-3.81.76-8,14.35-8,14.35l10.7,11.63s9-12.66,7.21-17.42C138,149,134.41,144.48,129.91,145.37Z" style="opacity: 0.2; transform-origin: 130.982773px 158.303619px;" class="animable"></path></g><g id="elznnpn6rmag"><path d="M135.89,154.19c1.93-1.72,3.23-1.17,4.11.24.85,4.08-4.38,12.48-6.49,15.66C132.57,166.23,131.51,158.1,135.89,154.19Z" style="opacity: 0.4; transform-origin: 136.382683px 161.603951px;" class="animable"></path></g><path d="M178.81,148.53c.68,4,.83,16.19-5.42,53.16L136.18,201c.72-15.11.79-24.43-6.27-55.59a109.44,109.44,0,0,1,15.81-1.77,119.66,119.66,0,0,1,16.89.34c5.41.59,11.35,1.77,14,2.33A2.79,2.79,0,0,1,178.81,148.53Z" style="fill: rgb(64, 123, 255); transform-origin: 154.519875px 172.588661px;" id="elas6p85zvif4" class="animable"></path><g id="elgjx9fldoyqu"><path d="M178.81,148.53c.68,4,.83,16.19-5.42,53.16L136.18,201c.72-15.11.79-24.43-6.27-55.59a109.44,109.44,0,0,1,15.81-1.77,119.66,119.66,0,0,1,16.89.34c5.41.59,11.35,1.77,14,2.33A2.79,2.79,0,0,1,178.81,148.53Z" style="opacity: 0.2; transform-origin: 154.519875px 172.588661px;" class="animable"></path></g><path d="M145.12,113.67c.71,9.07.82,12.92,5.47,17.56,7,7,18,4.28,20-4.78,1.81-8.16.34-21.62-8.59-25.21A12.22,12.22,0,0,0,145.12,113.67Z" style="fill: rgb(255, 139, 123); transform-origin: 158.166832px 117.739693px;" id="elh2hpco2v3an" class="animable"></path><path d="M147.52,97c-9.84.73-12.12,12.29-8.29,19.67-6.1,9.28-5.36,12.63-3.41,14.79,3.35,3.74,20.59,8.24,30.91.47,4.61-3.47-3.93-15.81-3.93-15.81S167.77,95.47,147.52,97Z" style="fill: rgb(38, 50, 56); transform-origin: 151.25766px 116.558731px;" id="elsu6k5635qxi" class="animable"></path><path d="M136.76,131.83c-2.79,0-3.78-1.38-4.1-2.6-1-4,4-11.76,9-13.91a.55.55,0,0,1,.44,1c-4.43,1.91-9.28,9.22-8.37,12.63.37,1.4,1.73,2,4,1.72a.55.55,0,0,1,.6.49.54.54,0,0,1-.48.6C137.48,131.8,137.1,131.83,136.76,131.83Z" style="fill: rgb(38, 50, 56); transform-origin: 137.451393px 123.56284px;" id="elqdgk2f6r7ng" class="animable"></path><path d="M151.61,120.22l-10.83.36a3.16,3.16,0,0,1-3.27-3.19h0a3.42,3.42,0,0,1,3.26-3.4l10.83-.36a3.16,3.16,0,0,1,3.27,3.19h0A3.42,3.42,0,0,1,151.61,120.22Z" style="fill: rgb(64, 123, 255); transform-origin: 146.190002px 117.105px;" id="elx128enz6mtc" class="animable"></path><path d="M148.74,100.3c3.69-5.74,13.35-7.47,19.46-3.87,7.15,4.21,7,12.66-5.07,17.39C150,119,148.74,100.3,148.74,100.3Z" style="fill: rgb(38, 50, 56); transform-origin: 160.873466px 104.639481px;" id="el7fvzjjhg38x" class="animable"></path><path d="M165.17,113.72a9.08,9.08,0,0,1,2.92,4.84c.54,2.39-1,2.07-2.77,1.09-1.6-.88-4.1-2.62-4-4.61S163.6,112.37,165.17,113.72Z" style="fill: rgb(255, 139, 123); transform-origin: 164.758339px 116.701588px;" id="elsn7owdt5g8" class="animable"></path><path d="M163.56,201.49s-5.67,62.66-11.39,97.93c-4.62,28.48-8.53,95.12-8.53,95.12H131.16s-4.07-65-1.65-93.26c6.14-71.39-6.59-77.47,6.67-100.32Z" style="fill: rgb(38, 50, 56); transform-origin: 146.150841px 297.75px;" id="elj2ifto1a5jr" class="animable"></path><g id="elpaw1i39kt1"><path d="M150.87,222.44c3.25,4.78,7.59,10.29,9,16.11-1.12,10.57-2.43,22.26-3.85,33.5C152.58,262.6,146.7,243.71,150.87,222.44Z" style="opacity: 0.4; transform-origin: 154.650551px 247.244995px;" class="animable"></path></g><path d="M173.39,201.69s12.17,68.58,17.28,96.06c5.31,28.57,20.38,92.17,20.38,92.17l-12.45,6.4s-25.75-76.8-28.82-91.21C161.66,275,138.4,201,138.4,201Z" style="fill: rgb(38, 50, 56); transform-origin: 174.724998px 298.659988px;" id="elrpk2kuu9ms" class="animable"></path><polygon points="213.63 392.59 198.5 398.62 195.56 393.35 211.75 386.88 213.63 392.59" style="fill: rgb(64, 123, 255); transform-origin: 204.595001px 392.75px;" id="elcbehdgjjtd9" class="animable"></polygon><polygon points="145.35 394.79 129.46 394.79 128.54 389.21 145.36 388.64 145.35 394.79" style="fill: rgb(64, 123, 255); transform-origin: 136.949997px 391.715012px;" id="elw9w8fn94jb8" class="animable"></polygon><path d="M135.64,198.77l-1.7,3.29c-.13.25.18.52.61.53l39,.77c.34,0,.62-.16.64-.37l.35-3.31c0-.23-.26-.43-.63-.44l-37.67-.74A.65.65,0,0,0,135.64,198.77Z" style="fill: rgb(64, 123, 255); transform-origin: 154.225044px 200.928101px;" id="elsegmykl6wq" class="animable"></path><path d="M140.68,203.07l-1,0c-.2,0-.36-.11-.34-.23l.5-4.31c0-.13.19-.23.39-.23l1,0c.2,0,.35.11.34.24l-.5,4.31C141.05,203,140.88,203.08,140.68,203.07Z" style="fill: rgb(38, 50, 56); transform-origin: 140.454384px 200.685432px;" id="el6r6l4sbooh8" class="animable"></path><path d="M165.13,203.55l-1,0c-.2,0-.35-.11-.33-.23l.49-4.31c0-.13.19-.23.4-.23l1,0c.21,0,.36.11.34.24l-.5,4.31C165.51,203.46,165.33,203.56,165.13,203.55Z" style="fill: rgb(38, 50, 56); transform-origin: 164.915001px 201.165352px;" id="elefpxccsvvg8" class="animable"></path><path d="M183.53,153.22c1.13,1.91,2.33,4,3.56,5.91s2.45,3.93,3.74,5.83,2.62,3.78,4,5.59,2.78,3.52,4.25,5.09a9.61,9.61,0,0,0,4.3,2.4,30.76,30.76,0,0,0,6.24,1.08,81,81,0,0,0,13.65-.22l1,4.52a57.72,57.72,0,0,1-14.79,2.75,34.07,34.07,0,0,1-8-.51,21.61,21.61,0,0,1-4.22-1.29,14.75,14.75,0,0,1-4.13-2.66,74.68,74.68,0,0,1-9.91-11.46,115.08,115.08,0,0,1-7.92-12.52Z" style="fill: rgb(255, 139, 123); transform-origin: 199.785011px 169.72007px;" id="elkrf0zfi70g" class="animable"></path><path d="M178.2,146.53c8.88,1.41,12.55,14.08,12.55,14.08l-10.67,10.28S168,159.8,168,152.74C168,147.49,173.36,145.76,178.2,146.53Z" style="fill: rgb(64, 123, 255); transform-origin: 179.375px 158.622841px;" id="elhyxprxxumc" class="animable"></path><g id="elu03rhkz6v6n"><path d="M178.2,146.53c8.88,1.41,12.55,14.08,12.55,14.08l-10.67,10.28S168,159.8,168,152.74C168,147.49,173.36,145.76,178.2,146.53Z" style="opacity: 0.2; transform-origin: 179.375px 158.622841px;" class="animable"></path></g><path d="M233.79,173.14c-.12,1.59-.33,3.16-.56,4.72s-.51,3.11-.8,4.65-.62,3.08-1,4.61-.31,3.16-2,4.31a1.41,1.41,0,0,1-1.69-.24,1.48,1.48,0,0,1-.22-.29c-1-1.9-.13-3.29.15-4.83s.79-3,1.22-4.54.89-3,1.38-4.49,1-3,1.61-4.43a1,1,0,0,1,1.24-.37A1,1,0,0,1,233.79,173.14Z" style="fill: rgb(38, 50, 56); transform-origin: 230.420837px 181.882179px;" id="elfqks2cad8lf" class="animable"></path><path d="M233.92,174.83l-3-.49c-.45-.08-.67-.63-.5-1.23h0c.17-.6.68-1,1.13-1l3,.5c.45.07.67.62.5,1.23h0C234.88,174.48,234.37,174.91,233.92,174.83Z" style="fill: rgb(38, 50, 56); transform-origin: 232.735008px 173.474785px;" id="elbjfhyvz2d5" class="animable"></path><path d="M238.92,151.1c-4.56-1.32-9.84,2.53-11.78,8.61s.18,12.08,4.74,13.4,9.84-2.54,11.79-8.61S243.49,152.42,238.92,151.1Zm-6.48,20.27c-3.85-1.11-5.63-6.16-4-11.28s6.08-8.36,9.92-7.25,5.64,6.16,4,11.28S236.28,172.48,232.44,171.37Z" style="fill: rgb(64, 123, 255); transform-origin: 235.407028px 162.104767px;" id="ela0wi732gdrp" class="animable"></path><g id="eli1ohc8yw3d"><path d="M233.5,172c-3.6-1-5.28-5.78-3.75-10.57s5.7-7.85,9.31-6.8,5.28,5.78,3.74,10.57S237.1,173,233.5,172Z" style="fill: rgb(64, 123, 255); opacity: 0.1; transform-origin: 236.27861px 163.307564px;" class="animable"></path></g><path d="M220.39,183.75l9.8,1.83,1-8.22s-8.06.47-10.83,3Z" style="fill: rgb(255, 139, 123); transform-origin: 225.775002px 181.470001px;" id="elhk57ij14j9" class="animable"></path><path d="M232.65,185.56l1.73-5.46a.84.84,0,0,0-.36-1l-2.8-1.77-1,8.22,1.35.52A.85.85,0,0,0,232.65,185.56Z" style="fill: rgb(255, 139, 123); transform-origin: 232.324005px 181.724121px;" id="elfq456764iek" class="animable"></path></g><defs>     <filter id="active" height="200%">         <feMorphology in="SourceAlpha" result="DILATED" operator="dilate" radius="2"></feMorphology>                <feFlood flood-color="#32DFEC" flood-opacity="1" result="PINK"></feFlood>        <feComposite in="PINK" in2="DILATED" operator="in" result="OUTLINE"></feComposite>        <feMerge>            <feMergeNode in="OUTLINE"></feMergeNode>            <feMergeNode in="SourceGraphic"></feMergeNode>        </feMerge>    </filter>    <filter id="hover" height="200%">        <feMorphology in="SourceAlpha" result="DILATED" operator="dilate" radius="2"></feMorphology>                <feFlood flood-color="#ff0000" flood-opacity="0.5" result="PINK"></feFlood>        <feComposite in="PINK" in2="DILATED" operator="in" result="OUTLINE"></feComposite>        <feMerge>            <feMergeNode in="OUTLINE"></feMergeNode>            <feMergeNode in="SourceGraphic"></feMergeNode>        </feMerge>            <feColorMatrix type="matrix" values="0   0   0   0   0                0   1   0   0   0                0   0   0   0   0                0   0   0   1   0 "></feColorMatrix>    </filter></defs></svg>